<svg width="778" height="588" viewBox="0 0 778 588" fill="none" xmlns="http://www.w3.org/2000/svg">
<path d="M376.667 0.150646C340.933 3.35065 318.667 9.21731 292.667 22.284C259.867 38.684 230.133 65.484 209.867 96.684C202.533 108.151 190.8 132.551 186.933 144.684C179.333 168.151 178.133 176.951 178 208.684C178 233.084 178.4 240.817 180.533 250.017C183.6 264.284 189.733 283.617 194.533 294.551L198.4 302.951L187.467 304.684C155.467 309.751 138.533 323.884 134.533 348.817C130.133 376.551 149.067 400.417 183.333 410.284C207.867 417.217 251.067 412.284 281.467 398.817L288.533 395.751L282.667 392.017C279.333 390.017 276.4 388.151 276.133 387.884C275.867 387.617 281.6 381.217 288.8 373.617C314.533 346.684 332.8 317.084 382.267 221.351C393.2 200.017 406 176.417 410.4 168.951C414.933 161.351 418.667 154.817 418.667 154.551C418.667 154.284 411.467 153.884 402.667 153.751L386.667 153.351L388.667 150.284C390.667 147.484 391.733 147.351 406.533 147.351H422.4L430.8 133.084C441.333 115.351 454.933 94.5507 463.2 84.0173C471.6 73.2173 492.267 52.284 500.933 45.7506C504.8 42.8173 508 39.884 508 39.3506C508 37.7506 493.2 28.684 480.267 22.1506C460.4 12.1506 436.267 4.68398 415.333 2.15065C401.733 0.550646 383.6 -0.382688 376.667 0.150646ZM386.4 50.284C390 52.1506 394.267 55.884 396.667 59.2173C400.267 64.4173 400.667 65.884 400.667 75.084C400.667 83.2173 400 86.5507 397.467 91.2173C384.933 114.951 354 126.817 331.067 116.684C318.533 111.084 314.133 104.017 314.4 89.2173C314.667 70.8173 330.533 53.6173 352.667 47.7506C362.667 45.2173 378.8 46.4173 386.4 50.284ZM222.133 304.817C225.333 305.617 228 306.684 228 307.217C228 307.617 222.8 309.351 216.533 310.817L204.933 313.484L202.533 309.484C201.067 307.217 200 304.951 200 304.284C200 302.817 215.467 303.217 222.133 304.817ZM211.333 324.951C225.467 346.417 241.467 363.217 261.333 377.884C267.6 382.551 272.8 386.817 273.067 387.484C273.6 388.817 263.867 396.017 255.733 400.151C252.267 401.884 245.6 404.284 241.067 405.351C215.6 411.351 196.533 403.084 186.667 381.751C182.267 372.417 182 371.351 182 356.684C182 342.551 182.267 340.817 185.733 333.751C189.333 326.417 199.867 315.351 203.333 315.351C204.267 315.351 207.867 319.751 211.333 324.951Z" fill="#FBFAF8"/>
<path d="M359.6 52.8173C350 57.884 335.467 80.684 332.267 96.1507C330.533 104.417 332.133 111.617 336.4 114.684C340.267 117.484 348.4 117.217 354.4 114.151C369.733 106.417 386.267 75.2173 383.333 59.884C381.733 50.9507 369.867 47.3507 359.6 52.8173Z" fill="#FBFAF8"/>
<path d="M571.733 14.1506C554.533 16.0173 526.4 27.0839 512.667 37.4839C510 39.4839 510.133 39.6173 514.667 43.0839C517.2 45.0839 521.6 48.8173 524.4 51.3506L529.6 56.1506L526.4 60.0173C516.8 71.6173 491.867 110.684 477.467 136.951L471.867 147.351H518.533C544.267 147.351 565.333 147.751 565.333 148.151C565.333 148.551 564.667 150.017 564 151.484C562.667 153.884 560.667 154.017 515.467 154.017H468.4L446.667 196.951C434.667 220.684 421.067 246.951 416.4 255.351C387.733 306.551 359.6 343.617 332.133 366.551C321.467 375.484 302.667 388.151 294.4 392.151C291.6 393.484 289.333 394.951 289.333 395.484C289.333 396.817 307.2 404.551 322.133 409.484C352.533 419.617 388.533 422.284 421.333 416.817C487.467 405.884 544.267 364.017 574.4 304.017C583.2 286.417 588.4 271.351 592.667 250.817C595.6 236.284 596.133 230.551 596.133 210.017C596.133 183.084 592.933 163.217 585.2 141.217C575.867 114.551 557.333 84.4173 538.533 65.3506C534.267 60.9506 530.667 56.5506 530.667 55.7506C530.667 52.8173 555.6 29.0839 563.467 24.5506C570.267 20.6839 572.533 20.0173 580.133 20.0173C590.4 20.0173 593.467 21.8839 597.467 30.6839C603.067 42.8173 599.6 58.8173 588.133 74.0173L581.6 82.684L585.067 84.5506C587.067 85.6173 592.667 86.4173 598 86.5506C615.2 86.5506 629.2 80.0173 638 67.4839C641.733 62.2839 642 60.8173 642 50.9506C642 42.4173 641.333 38.8173 639.067 34.5506C633.067 23.3506 620.667 16.4173 602.133 14.0173C591.333 12.5506 586.133 12.5506 571.733 14.1506Z" fill="#FBFAF8"/>
<path d="M684.267 470.817C680.933 473.084 677.333 479.351 677.333 482.684C677.333 487.617 681.867 494.417 686.533 496.284C692 498.551 699.333 497.084 703.2 492.817C706.267 489.351 707.333 481.617 705.333 476.684C702.267 469.351 690.8 466.151 684.267 470.817Z" fill="#FBFAF8"/>
<path d="M168 528.684V586.151L180.4 585.751L192.667 585.351L193.467 557.351C193.867 541.884 194.267 529.217 194.4 529.084C194.533 528.951 196.4 527.884 198.667 526.684C204.133 523.884 208.667 524.151 212.933 527.884L216.667 531.084L217.333 558.284L218 585.351H230.667H243.333L243.733 563.351C244.4 525.884 240.133 513.084 225.067 506.684C216.133 503.084 204.667 504.817 197.333 510.817L193.333 514.284V492.817V471.351H180.667H168V528.684Z" fill="#FBFAF8"/>
<path d="M501.333 528.684V586.017H514H526.667V559.217V532.417L530.533 528.551C534.933 524.151 540.4 523.484 545.067 526.817C550.533 530.551 551.2 533.751 552 560.017L552.667 585.351L565.067 585.751L577.333 586.151V560.151C577.333 529.217 575.467 520.551 567.067 512.417C557.733 503.351 541.733 502.284 532.8 510.151C526.933 515.217 526.667 514.551 526.667 490.551V471.351H514H501.333V528.684Z" fill="#FBFAF8"/>
<path d="M0 532.017V586.151L13.0667 585.751L26 585.351L26.4 564.951L26.8 544.684H46H65.3333V534.017V523.351H46H26.6667V510.684V498.017H46.6667H66.6667V488.017V478.017H33.3333H0V532.017Z" fill="#FBFAF8"/>
<path d="M728 495.884V505.884L722.4 506.284L716.667 506.684V516.017V525.351L722.133 525.751L727.733 526.151L728.267 547.084C728.667 566.417 728.933 568.417 732 574.017C737.867 584.551 751.467 589.351 766.667 586.151C777.067 584.017 777.2 583.884 776.133 574.684L775.333 566.684H766.933C755.067 566.684 754.667 565.884 754.667 543.751V526.017H766H777.333V516.017V506.017H766H754.667V496.017V486.017H741.333H728V495.884Z" fill="#FBFAF8"/>
<path d="M98 506.551C90 508.684 84 510.951 84 512.017C84 512.417 84.9334 516.684 86.1334 521.351L88.2667 529.751L92.5334 528.017C99.4667 525.084 109.867 524.151 115.333 526.017C118.933 527.217 120.8 528.817 122.133 532.151C125.333 539.884 124.933 540.684 116.4 540.684C97.4667 540.684 84.5334 545.217 80.4 553.084C77.6 558.551 77.7334 569.617 80.6667 575.751C86 586.951 102.8 590.284 116.933 582.951C120.8 580.951 124.267 579.351 124.667 579.351C125.067 579.351 125.333 580.817 125.333 582.684V586.151L137.067 585.751L148.667 585.351V556.017C148.667 528.284 148.533 526.417 145.733 521.217C144.133 518.151 140.933 514.151 138.667 512.284C130.4 505.217 112.8 502.817 98 506.551ZM124 560.551C124 567.084 121.733 568.951 112.667 569.751C106.4 570.284 105.467 570.017 104 567.351C100.133 560.151 105.467 555.751 118.4 555.484L124 555.351V560.551Z" fill="#FBFAF8"/>
<path d="M345.067 506.417C333.067 509.884 322.667 520.817 320.133 532.817C314.8 557.351 323.733 577.617 342.8 584.151C354.667 588.284 377.6 587.084 388.133 581.884C389.867 580.951 390 579.617 388.933 572.684C387.6 564.684 387.467 564.551 384.133 565.484C364.933 570.551 352.4 568.951 347.6 560.817C342.8 552.817 343.067 552.684 368 552.684H390.533L391.467 547.884C393.733 536.017 390.267 521.617 383.467 514.284C376.133 506.151 358.667 502.684 345.067 506.417ZM362.533 522.684C366.667 524.684 368 527.084 368 532.151C368 535.217 367.733 535.351 356.667 535.351C346.133 535.351 345.333 535.217 345.333 532.551C345.333 528.551 347.6 524.951 351.733 522.817C356.267 520.284 357.867 520.284 362.533 522.684Z" fill="#FBFAF8"/>
<path d="M444.267 506.417C441.733 507.217 438 509.617 435.867 511.617L432 515.617V510.684V505.884L419.733 506.284L407.333 506.684V546.017V585.351H420H432.667L433.067 558.151C433.333 535.484 433.733 530.417 435.467 528.551C438.4 525.351 444.8 524.151 449.067 525.884C456 528.817 456.667 531.217 457.333 559.351L458 585.351L470.4 585.751L482.933 586.151L482.4 557.084C482 530.817 481.733 527.484 479.067 521.884C472.533 507.484 459.2 501.617 444.267 506.417Z" fill="#FBFAF8"/>
<path d="M616.267 507.217C606.533 510.551 600 516.151 595.333 525.351C591.733 532.417 591.333 534.417 591.333 545.884C591.333 557.217 591.733 559.617 595.067 566.284C602 580.284 614.267 586.684 634 586.684C645.467 586.551 660.267 583.484 661.867 580.817C662.267 580.151 662 576.284 661.067 572.017C659.733 565.217 659.333 564.551 656.8 565.351C649.6 567.484 636 568.951 631.467 568.151C625.6 567.084 619.067 561.484 617.867 556.417L617.067 552.684L640.133 552.417L663.333 552.017L663.733 541.351C664.267 527.884 662.533 521.884 655.733 514.551C646.933 504.951 631.2 502.017 616.267 507.217ZM634.933 522.151C636.4 522.951 638.4 525.751 639.6 528.417C642.4 534.951 640.4 536.151 627.6 535.617C616.4 535.084 615.467 534.151 619.2 527.484C622.4 521.617 629.467 519.217 634.933 522.151Z" fill="#FBFAF8"/>
<path d="M262.667 546.017V586.151L275.067 585.751L287.333 585.351L288 560.151L288.667 534.817L292.8 532.417C295.067 531.084 300.533 529.484 304.8 528.951L312.667 528.017L313.067 516.951L313.467 506.017H307.467C299.467 506.017 294.8 508.017 290.4 513.084L286.8 517.351L286.667 511.617V506.017H274.667H262.667V546.017Z" fill="#FBFAF8"/>
<path d="M680 546.017V586.151L692.4 585.751L704.667 585.351V546.017V506.684L692.4 506.284L680 505.884V546.017Z" fill="#FBFAF8"/>
</svg>
